<svg xmlns="http://www.w3.org/2000/svg" width="339.80301pt" height="64.023277pt" fill-rule="evenodd" viewBox="0 0 339.80301 64.023276"><path d="M257.514 167.369h-3.411v18.772h3.411v-9.103h3.699v-2.559h-3.699zM244.744 190.576c-.076-.074-.113-.176-.113-.313v-5.517h-3.497v6.204c0 .793.191 1.374.568 1.747.378.365.954.556 1.734.556H257.8v-2.562h-12.742a.428.428 0 0 1-.314-.115zM247.601 180.961c1.243-1.173 1.864-2.575 1.864-4.203a5.5 5.5 0 0 0-.34-1.923 5.822 5.822 0 0 0-.939-1.667h3.212v-2.53h-6.452v-3.41h-3.644v3.41h-6.4v2.53h3.159a5.835 5.835 0 0 0-.935 1.667 5.415 5.415 0 0 0-.345 1.923c0 1.628.621 3.03 1.862 4.203 1.241 1.18 2.736 1.772 4.482 1.772 1.745 0 3.233-.592 4.476-1.772zm-6.438-1.828a3.803 3.803 0 0 1-.823-2.375c0-.878.287-1.656.863-2.35.579-.689 1.236-1.039 1.979-1.039.777 0 1.434.35 1.976 1.056.541.698.811 1.496.811 2.385 0 .874-.28 1.656-.824 2.35-.551.687-1.215 1.038-1.992 1.038-.774 0-1.443-.356-1.99-1.065zM283.757 175.781c.15-.566.229-1.456.229-2.67v-4.58c0-.112-.024-.196-.073-.243-.051-.047-.119-.07-.213-.07h-19.481v2.557h15.697c.231 0 .383.039.457.118.075.075.115.216.115.428v1.481c0 1.113-.054 2.009-.159 2.684a4.519 4.519 0 0 1-.695 1.833h-18.09v2.562h10.639v4.266h-7.482v2.559h15.215c.094 0 .168.024.216.07.046.045.066.121.066.214v6.54h3.559v-9.096a.322.322 0 0 0-.071-.22c-.046-.044-.12-.067-.214-.067h-7.478v-4.266h10.607v-2.562h-3.582c.34-.453.588-.967.738-1.538zM300.935 173.676h-3.525v4.733h-9.559v2.552h25.029v-2.552h-11.945z" style="fill:#737476;stroke:none" transform="translate(-127.208 -149.16)"/><path d="M306.455 171.041c.076.075.116.215.116.425v.767c0 1.215-.068 2.175-.202 2.872a4.73 4.73 0 0 1-.88 1.961h3.354c.436-.53.75-1.075.939-1.634.19-.561.285-1.522.285-2.884v-3.897a.357.357 0 0 0-.056-.214c-.039-.048-.103-.073-.197-.073h-19.119v2.561h15.304c.229 0 .38.038.456.116zM305.076 183.85c-1.301-1.185-2.869-1.772-4.708-1.772-1.838 0-3.409.587-4.706 1.772-1.298 1.186-1.949 2.603-1.949 4.253 0 1.651.651 3.063 1.949 4.24 1.297 1.172 2.868 1.761 4.706 1.761 1.839 0 3.407-.589 4.708-1.761 1.296-1.177 1.948-2.589 1.948-4.24 0-1.65-.652-3.067-1.948-4.253zm-2.448 6.674c-.636.66-1.388.995-2.26.995-.853 0-1.604-.335-2.247-.995-.646-.668-.966-1.473-.966-2.421 0-.946.32-1.754.966-2.416.643-.666 1.394-.995 2.247-.995.872 0 1.624.329 2.26.995.635.662.951 1.47.951 2.416 0 .948-.316 1.753-.951 2.421zM323.303 190.583a.417.417 0 0 1-.115-.313v-5.973h-3.498v6.654c0 .796.186 1.379.565 1.751.382.369.959.554 1.737.554h14.506v-2.559h-12.884a.427.427 0 0 1-.311-.114zM326.415 180c1.394-1.364 2.091-3.005 2.091-4.917 0-1.915-.697-3.556-2.091-4.92-1.389-1.367-3.077-2.052-5.048-2.052s-3.655.685-5.049 2.052c-1.393 1.364-2.088 3.005-2.088 4.92 0 1.912.695 3.553 2.088 4.917 1.394 1.367 3.078 2.05 5.049 2.05 1.971 0 3.659-.683 5.048-2.05zm-7.678-1.807c-.731-.861-1.093-1.897-1.093-3.11 0-1.214.362-2.255 1.093-3.115.726-.865 1.604-1.297 2.63-1.297 1.024 0 1.904.432 2.635 1.297.726.86 1.09 1.901 1.09 3.115 0 1.213-.364 2.249-1.09 3.11-.731.865-1.611 1.296-2.635 1.296-1.026 0-1.904-.431-2.63-1.296zM336.216 186.147v-18.774H332.8v18.774zM342.714 177.194c.831 0 1.725-.103 2.685-.309.956-.21 1.881-.478 2.772-.799a12.63 12.63 0 0 0 2.303-1.134c.685-.439 1.189-.923 1.509-1.453.038-.042.1-.058.186-.058.083 0 .137.016.158.058.358.53.854 1.007 1.492 1.435.633.426 1.34.801 2.116 1.124.915.362 1.864.64 2.86.841.994.197 1.928.295 2.802.295l1.619-2.017a.344.344 0 0 0 .086-.196c0-.06-.056-.089-.169-.089a22.17 22.17 0 0 1-2.618-.283 14.006 14.006 0 0 1-2.589-.685c-.987-.36-1.831-.839-2.525-1.434a3.678 3.678 0 0 1-1.285-2.263h7.737v-2.561h-19.37v2.561h7.705a3.535 3.535 0 0 1-1.038 2.016c-.556.555-1.244 1.02-2.061 1.398-.87.398-1.833.695-2.883.882a25.802 25.802 0 0 1-3.03.369c-.115 0-.177.023-.185.074-.012.042.024.117.099.211zM339.64 181.464h10.611v1.56c-1.31.362-2.395 1.035-3.259 2.022-.861.985-1.294 2.122-1.294 3.409 0 1.555.628 2.889 1.893 3.999 1.26 1.109 2.777 1.665 4.562 1.665 1.782 0 3.305-.556 4.567-1.665 1.26-1.11 1.888-2.444 1.888-3.999 0-1.287-.431-2.424-1.288-3.409-.869-.987-1.948-1.66-3.26-2.022v-1.56h10.608v-2.561H339.64Zm14.617 4.848c.625.617.941 1.328.941 2.143 0 .817-.316 1.534-.941 2.149-.622.615-1.324.924-2.104.924-.758 0-1.453-.309-2.089-.924-.634-.615-.952-1.332-.952-2.149 0-.815.318-1.526.952-2.143.636-.618 1.331-.926 2.089-.926.78 0 1.482.308 2.104.926zM385.499 175.763h-2.161v-8.39h-3.243v26.166h3.243v-15.216h2.161v15.216h3.24v-26.166h-3.24zM377.649 169.082h-10.41v2.562h7.196v.079c0 1.426-.146 2.713-.429 3.871-.282 1.154-.674 2.178-1.167 3.071-.87 1.59-1.983 2.833-3.339 3.725-1.357.893-2.734 1.526-4.139 1.907-.077.019-.125.048-.14.087-.023.035-.002.083.055.141l1.907 1.622c1.42-.306 2.887-.927 4.39-1.867 1.51-.938 2.801-2.212 3.883-3.821.759-1.119 1.358-2.382 1.812-3.784.441-1.403.666-2.97.666-4.694v-2.619a.278.278 0 0 0-.076-.193c-.043-.062-.119-.087-.209-.087zM413.331 167.373h-3.389v26.166h3.389v-15.073h3.7v-2.56h-3.7zM407.268 183.668c-.644-.128-1.344-.432-2.088-.907a9.762 9.762 0 0 1-2.119-1.847c-.651-.78-1.193-1.707-1.634-2.776-.449-1.072-.672-2.272-.672-3.597v-5.889H397.2v5.889c0 1.236-.186 2.358-.567 3.371-.379 1.013-.864 1.902-1.45 2.656-.667.854-1.405 1.543-2.205 2.067-.808.523-1.571.864-2.294 1.033-.074.022-.117.054-.123.103a.147.147 0 0 0 .04.129l1.763 2.047a7.328 7.328 0 0 0 1.876-.785 11.89 11.89 0 0 0 1.85-1.294 11.293 11.293 0 0 0 1.608-1.578c.465-.56.821-1.112 1.067-1.665.054-.112.131-.166.228-.166s.161.054.201.166c.204.535.544 1.074 1.009 1.62a11.58 11.58 0 0 0 1.551 1.54c.607.512 1.245.961 1.934 1.348.676.392 1.318.661 1.901.814l1.764-2.047a.17.17 0 0 0 .057-.129c0-.049-.047-.081-.142-.103zM437.747 186.083h-10.18v-2.477h-3.468v7.651c0 .76.196 1.333.595 1.722.398.39.948.583 1.651.583h12.627c.703 0 1.251-.193 1.648-.583.4-.389.599-.962.599-1.722v-7.932h-3.472zm0 4.552c0 .169-.028.29-.096.356-.07.064-.183.098-.355.098h-9.275c-.168 0-.286-.019-.358-.055-.065-.039-.096-.167-.096-.375v-2.044h10.18zM437.802 173.651h-5.884a5.713 5.713 0 0 0-.257-.449 6.915 6.915 0 0 0-.283-.428h3.3v-2.531h-6.455v-3.274h-3.639v3.274h-6.402v2.531h3.241a5.583 5.583 0 0 0-.838 1.547 5.117 5.117 0 0 0-.298 1.75c0 1.571.602 2.926 1.8 4.052 1.209 1.128 2.646 1.692 4.311 1.692a6.089 6.089 0 0 0 2.803-.653c.863-.436 1.58-1.002 2.149-1.707h6.452v2.73h3.417v-14.79h-3.417zm-9.527 4.668c-.508.643-1.126.967-1.847.967-.737 0-1.363-.328-1.861-.981a3.576 3.576 0 0 1-.757-2.234c0-.833.261-1.567.784-2.205.521-.633 1.14-.951 1.862-.951.725 0 1.331.324 1.834.979.504.654.753 1.4.753 2.236a3.41 3.41 0 0 1-.768 2.189zm9.527-1.281h-5.373c.045-.148.062-.305.075-.466.008-.165.011-.332.011-.501h5.287zM463.602 167.373v16.863c-.403.25-.911.441-1.52.575-.621.129-1.423.195-2.408.195h-3.951v-2.897c1.192-.346 2.178-.983 2.955-1.924a4.9 4.9 0 0 0 1.17-3.226c0-.607-.1-1.178-.288-1.705a4.573 4.573 0 0 0-.824-1.451h2.928v-2.42h-5.885v-3.866h-3.526v3.866h-5.946v2.42h2.929a4.883 4.883 0 0 0-.828 1.464 5.148 5.148 0 0 0-.283 1.692c0 1.212.395 2.296 1.184 3.24a5.733 5.733 0 0 0 3.001 1.91v2.897h-7.2v2.56h13.427c1.289 0 2.319-.043 3.088-.126.765-.085 1.424-.28 1.977-.582v6.681h3.409v-26.166zm-9.613 12.457c-.7 0-1.295-.299-1.764-.894-.475-.597-.714-1.257-.714-1.977 0-.722.239-1.379.714-1.974.469-.602 1.064-.896 1.764-.896.697 0 1.287.294 1.761.896.473.595.712 1.252.712 1.974 0 .72-.239 1.38-.712 1.977-.474.595-1.064.894-1.761.894z" style="fill:#737476;stroke:none" transform="translate(-127.208 -149.16)"/><path d="M209.958 167.222h-7.502c.009-8.289-2.726-14.78-8.024-17.131-7.692-3.405-19.368 3.155-26.404 14.711-.207.307-.337.566-.084.737.254.173.412-.035.641-.358 6.479-8.982 14.711-14.407 20.096-11.72 6.937 3.466 7.041 17.88.728 32.202a55.33 55.33 0 0 1-4.22 7.848l9.784-.001a62.978 62.978 0 0 0 2.313-4.546c2.587-5.661 4.181-11.332 4.83-16.553h5.565c3.217 0 4.867 1.777 4.268 4.309-.588 2.494-2.404 4.086-9.926 3.421l6.583 13.369h8.478l-6.119-9.941c4.536.185 7.872-2.043 8.471-6.924.749-6.071-3.067-9.423-9.478-9.423z" style="fill:#e21c2a;stroke:none" transform="translate(-127.208 -149.16)"/><path d="M158.511 167.199h-8.977l-10.722 10.713 2.713-10.713h-7.885l-6.432 26.307 7.881-.002 2.985-12.189 8.012 12.189h7.938l-8.647-13.123z" style="fill:#004b95;stroke:none" transform="translate(-127.208 -149.16)"/><path d="M210.008 167.199h-7.507c.005-8.294-2.731-14.787-8.032-17.14-7.694-3.408-19.381 3.159-26.416 14.724-.207.307-.343.56-.089.734.254.173.413-.033.645-.358 6.479-8.988 14.722-14.418 20.105-11.727 6.942 3.47 7.044 17.893.732 32.219a55.534 55.534 0 0 1-4.225 7.855l9.789-.002a63.819 63.819 0 0 0 2.313-4.546c2.59-5.665 4.184-11.345 4.839-16.567h5.563c3.223 0 4.872 1.781 4.274 4.315-.589 2.493-2.41 4.086-9.935 3.421l6.586 13.377h8.488l-6.128-9.949c4.539.187 7.876-2.042 8.48-6.925.747-6.079-3.069-9.431-9.482-9.431z" style="fill:#e21c2a;stroke:none" transform="translate(-127.208 -149.16)"/><path d="M193.783 194.937c-.219-.102-.439.167-.573.361-7.343 10.675-16.861 16.697-23.5 13.833-7.765-3.343-7.576-17.54.421-31.705.376-.672.771-1.323 1.166-1.968l2.603 18.046h9.476l-4.941-26.301h-11.891a62.984 62.984 0 0 0-4.198 6.413c-9.737 17.099-9.07 34.393 1.485 38.63 9.007 3.605 21.814-3.463 29.938-16.649.196-.329.227-.553.014-.66z" style="fill:#004b95;stroke:none" transform="translate(-127.208 -149.16)"/><path d="M237.262 199.844h2.692v5.733h.035c.265-.502.551-.962.836-1.424l2.713-4.309h3.348l-3.975 5.52 4.173 7.443h-3.156l-2.959-5.594-1.015 1.363v4.231h-2.692zM251.81 210.924c-1.139 0-1.764-1.211-1.764-2.809 0-1.402.5-2.827 1.782-2.827 1.232 0 1.73 1.425 1.73 2.808 0 1.695-.662 2.828-1.73 2.828zm-.017 2.095c2.316 0 4.581-1.576 4.581-4.999 0-2.847-1.782-4.828-4.436-4.828-2.818 0-4.673 1.944-4.673 4.979 0 3.042 1.962 4.848 4.509 4.848zM258.069 206.498c0-1.382-.019-2.287-.075-3.095h2.32l.107 1.751h.07c.446-1.387 1.499-1.962 2.353-1.962.251 0 .376.018.571.057V206c-.231-.038-.444-.077-.749-.077-.998 0-1.675.557-1.854 1.482a3.592 3.592 0 0 0-.052.649v4.753h-2.71zM266.771 207.021c.07-.772.533-1.905 1.693-1.905 1.229 0 1.514 1.208 1.514 1.905zm5.63 2.018c.038-.232.089-.672.089-1.173 0-2.327-1.067-4.695-3.885-4.695-3.01 0-4.403 2.632-4.403 5.022 0 2.962 1.694 4.81 4.653 4.81 1.178 0 2.264-.196 3.154-.597l-.354-1.982c-.733.268-1.481.403-2.408.403-1.264 0-2.372-.577-2.46-1.807zM278.747 209.383c0 .174-.015.348-.053.503-.177.594-.747 1.078-1.407 1.078-.606 0-1.069-.37-1.069-1.119 0-1.116 1.105-1.478 2.529-1.478zm2.621-2.132c0-2.21-.907-4.059-3.813-4.059-1.586 0-2.781.48-3.387.847l.497 1.868c.574-.368 1.518-.695 2.407-.695 1.336 0 1.586.711 1.586 1.209v.119c-3.083 0-5.115 1.152-5.115 3.595 0 1.502 1.051 2.884 2.818 2.884 1.031 0 1.923-.402 2.494-1.154h.052l.161.942h2.441c-.106-.518-.141-1.383-.141-2.266zM290.388 207.287l.733-2.747c.177-.752.371-1.734.531-2.501h.056c.177.752.392 1.728.587 2.501l.751 2.747zm3.068 2.194.925 3.326h2.924l-3.741-12.963h-3.55l-3.672 12.963h2.817l.839-3.326zM298.752 210.268c.498.326 1.533.696 2.334.696.82 0 1.157-.291 1.157-.771 0-.501-.267-.731-1.264-1.098-1.817-.632-2.512-1.713-2.497-2.805 0-1.772 1.392-3.098 3.547-3.098 1.016 0 1.906.269 2.443.559l-.462 1.999c-.393-.211-1.161-.522-1.888-.522-.661 0-1.036.291-1.036.752 0 .464.337.692 1.407 1.094 1.658.597 2.336 1.521 2.355 2.888 0 1.769-1.267 3.057-3.762 3.057-1.141 0-2.157-.288-2.819-.67zM306.487 210.268c.498.326 1.532.696 2.335.696.82 0 1.158-.291 1.158-.771 0-.501-.268-.731-1.267-1.098-1.816-.632-2.511-1.713-2.495-2.805 0-1.772 1.393-3.098 3.549-3.098 1.014 0 1.907.269 2.441.559l-.462 1.999c-.393-.211-1.157-.522-1.889-.522-.661 0-1.035.291-1.035.752 0 .464.337.692 1.408 1.094 1.656.597 2.337 1.521 2.355 2.888 0 1.769-1.268 3.057-3.763 3.057-1.139 0-2.156-.288-2.815-.67zM318.287 210.924c-1.139 0-1.763-1.211-1.763-2.809 0-1.402.498-2.827 1.782-2.827 1.231 0 1.728 1.425 1.728 2.808 0 1.695-.66 2.828-1.728 2.828zm-.014 2.095c2.315 0 4.578-1.576 4.578-4.999 0-2.847-1.786-4.828-4.439-4.828-2.818 0-4.671 1.944-4.671 4.979 0 3.042 1.962 4.848 4.51 4.848zM331.119 212.579c-.477.246-1.391.44-2.419.44-2.821 0-4.622-1.864-4.622-4.826 0-2.748 1.746-5.001 4.994-5.001.711 0 1.494.136 2.066.366l-.426 2.172c-.324-.153-.805-.285-1.517-.285-1.423 0-2.353 1.095-2.337 2.634 0 1.729 1.073 2.65 2.392 2.65.641 0 1.138-.113 1.55-.305zM332.617 212.807v-9.404h2.712v9.404zm1.338-10.635c-.908 0-1.497-.691-1.497-1.557 0-.884.604-1.559 1.534-1.559.927 0 1.499.675 1.517 1.559 0 .866-.59 1.557-1.536 1.557zM342.139 209.383c0 .174-.018.348-.056.503-.179.594-.747 1.078-1.407 1.078-.603 0-1.072-.37-1.072-1.119 0-1.116 1.105-1.478 2.535-1.478zm2.619-2.132c0-2.21-.909-4.059-3.817-4.059-1.586 0-2.78.48-3.385.847l.5 1.868c.567-.368 1.513-.695 2.405-.695 1.335 0 1.587.711 1.587 1.209v.119c-3.081 0-5.115 1.152-5.115 3.595 0 1.502 1.049 2.884 2.816 2.884 1.034 0 1.925-.402 2.497-1.154h.051l.16.942h2.444c-.111-.518-.143-1.383-.143-2.266zM349.807 200.847v2.556h1.943v2.154h-1.943v3.424c0 1.137.266 1.654 1.067 1.654.374 0 .553-.019.804-.077l.019 2.208c-.338.138-1.003.253-1.751.253-.871 0-1.601-.325-2.046-.808-.502-.557-.751-1.46-.751-2.789v-3.865h-1.159v-2.154h1.159v-1.77zM353.318 212.807v-9.404h2.708v9.404zm1.339-10.635c-.911 0-1.499-.691-1.499-1.557 0-.884.606-1.559 1.531-1.559.927 0 1.496.675 1.516 1.559 0 .866-.589 1.557-1.531 1.557zM362.245 210.924c-1.14 0-1.762-1.211-1.762-2.809 0-1.402.498-2.827 1.783-2.827 1.23 0 1.728 1.425 1.728 2.808 0 1.695-.659 2.828-1.728 2.828zm-.017 2.095c2.319 0 4.583-1.576 4.583-4.999 0-2.847-1.784-4.828-4.438-4.828-2.818 0-4.671 1.944-4.671 4.979 0 3.042 1.962 4.848 4.51 4.848zM368.487 206.402c0-1.174-.034-2.15-.072-2.999h2.354l.124 1.308h.054a3.084 3.084 0 0 1 2.691-1.519c1.785 0 3.121 1.29 3.121 4.059v5.556h-2.712v-5.211c0-1.211-.396-2.039-1.369-2.039-.75 0-1.2.56-1.394 1.098-.07.19-.088.46-.088.727v5.425h-2.709zM386.578 210.924c-1.143 0-1.763-1.211-1.763-2.809 0-1.402.497-2.827 1.783-2.827 1.229 0 1.733 1.425 1.733 2.808 0 1.695-.664 2.828-1.733 2.828zm-.014 2.095c2.316 0 4.576-1.576 4.576-4.999 0-2.847-1.78-4.828-4.434-4.828-2.817 0-4.672 1.944-4.672 4.979 0 3.042 1.958 4.848 4.511 4.848zM393.139 212.807v-7.25h-1.156v-2.154h1.156v-.365c0-1.132.318-2.385 1.089-3.153.698-.695 1.619-.945 2.42-.945.592 0 1.054.099 1.427.192l-.103 2.252a2.787 2.787 0 0 0-.875-.133c-.893 0-1.263.749-1.263 1.671v.481h1.743v2.154h-1.73v7.25zM405.277 202.039c.2-.06.569-.096 1.231-.096 1.248 0 1.997.614 1.997 1.788 0 1.134-.804 1.862-2.155 1.862h-1.073zm-2.69 10.768h2.69v-5.095h.803c1.122.021 1.641.441 1.979 2.079.337 1.592.643 2.651.822 3.016h2.779c-.231-.5-.589-2.191-.963-3.673-.305-1.193-.767-2.036-1.603-2.405v-.057a3.414 3.414 0 0 0 2.119-3.172c0-1.195-.394-2.097-1.122-2.713-.857-.749-2.102-1.037-3.882-1.037-1.469 0-2.75.114-3.622.288zM415.132 207.021c.078-.769.539-1.905 1.696-1.905 1.23 0 1.515 1.208 1.515 1.905zm5.64 2.019c.031-.233.085-.673.085-1.174 0-2.327-1.066-4.695-3.886-4.695-3.009 0-4.4 2.632-4.4 5.022 0 2.962 1.691 4.81 4.652 4.81 1.174 0 2.259-.196 3.155-.597l-.356-1.982c-.731.268-1.481.403-2.41.403-1.264 0-2.372-.577-2.46-1.807zM427.115 209.383c0 .174-.017.348-.053.503-.18.594-.752 1.078-1.407 1.078-.61 0-1.071-.37-1.071-1.119 0-1.116 1.107-1.478 2.531-1.478zm2.623-2.132c0-2.21-.91-4.059-3.816-4.059-1.59 0-2.781.48-3.389.847l.498 1.868c.572-.368 1.516-.695 2.409-.695 1.335 0 1.584.711 1.584 1.209v.119c-3.082 0-5.114 1.152-5.114 3.595 0 1.502 1.052 2.884 2.816 2.884 1.033 0 1.925-.402 2.496-1.154h.054l.162.942h2.438c-.106-.518-.138-1.383-.138-2.266zM431.895 199.153h2.705v13.654h-2.705zM439.805 200.847v2.556h1.943v2.154h-1.943v3.424c0 1.137.264 1.654 1.069 1.654.376 0 .556-.019.805-.077l.017 2.208c-.337.138-1.001.253-1.746.253-.875 0-1.606-.325-2.05-.808-.498-.557-.747-1.46-.747-2.789v-3.865h-1.162v-2.154h1.162v-1.77zM447.274 210.924c-1.136 0-1.761-1.211-1.761-2.809 0-1.402.498-2.827 1.782-2.827 1.229 0 1.733 1.425 1.733 2.808 0 1.695-.662 2.828-1.733 2.828zm-.015 2.095c2.317 0 4.582-1.576 4.582-4.999 0-2.847-1.785-4.828-4.439-4.828-2.815 0-4.671 1.944-4.671 4.979 0 3.042 1.962 4.848 4.51 4.848zM453.538 206.498c0-1.382-.021-2.287-.075-3.095h2.319l.107 1.751h.069c.446-1.387 1.497-1.962 2.356-1.962.246 0 .371.018.568.057V206c-.229-.038-.443-.077-.747-.077-.999 0-1.676.557-1.852 1.482a3.402 3.402 0 0 0-.055.649v4.753h-2.711zM460.273 210.268c.499.326 1.533.696 2.335.696.818 0 1.16-.291 1.16-.771 0-.501-.27-.731-1.269-1.098-1.814-.632-2.515-1.713-2.493-2.805 0-1.772 1.39-3.098 3.549-3.098 1.014 0 1.904.269 2.439.559l-.462 1.999c-.392-.211-1.16-.522-1.891-.522-.66 0-1.033.291-1.033.752 0 .464.334.692 1.409 1.094 1.658.597 2.333 1.521 2.353 2.888 0 1.769-1.268 3.057-3.762 3.057-1.142 0-2.159-.288-2.818-.67z" style="fill:#737476;stroke:none" transform="translate(-127.208 -149.16)"/></svg>