<svg version="1.2" xmlns="http://www.w3.org/2000/svg" viewBox="0 0 1392 247" width="1392" height="247"><style>.a{fill:#1b54a2}.b{fill:#5ea8e0}.c{fill:#4dc3b2}.d{fill:#65696e}</style><path class="a" d="m185.7 30.5q4.3 0 8.6 0.5 4.3 0.5 8.5 1.6 4.1 1.1 8.1 2.7 4 1.6 7.8 3.7 3.8-2.1 7.8-3.7 3.9-1.6 8.1-2.7 4.2-1.1 8.5-1.6 4.2-0.6 8.5-0.5c31.1 0 57.2 20.9 65.1 49.3h1.2c-10-45.6-50.6-79.8-99.2-79.8-48.6 0-89.3 34.2-99.2 79.8h1.2c7.9-28.4 34-49.3 65-49.3z"/><path class="b" d="m218.7 39q-3.8-2.1-7.8-3.7-4-1.6-8.1-2.7-4.2-1.1-8.5-1.6-4.3-0.6-8.6-0.5c-31 0-57.1 20.9-65 49.3h65.9c4.8-17.4 16.6-32.1 32.1-40.8z"/><path class="c" d="m251.6 30.5q-4.3 0-8.5 0.5-4.3 0.5-8.5 1.6-4.2 1.1-8.1 2.7-4 1.6-7.8 3.7c15.5 8.7 27.3 23.4 32.1 40.8h65.9c-7.9-28.4-34-49.3-65.1-49.3z"/><path fill-rule="evenodd" class="a" d="m0 243.6l5.1-9.9h427.2l5.1 9.9zm52.9-136.5l2.9 108.6h-21.4l2.8-108.6zm49.7 0l2.9 108.6h-21.4l2.8-108.6zm49.6 0l3 108.6h-21.5l2.9-108.6zm49.6 0l3 108.6h-21.4l2.8-108.6zm49.6 0l3 108.6h-21.4l2.8-108.6zm49.7 0l2.9 108.6h-21.4l2.9-108.6zm49.6 0l2.9 108.6h-21.4l2.9-108.6zm49.6 0l2.9 108.6h-21.4l2.9-108.6zm37.3-17.4l-5.2 9.9h-427.2l-5.1-9.9zm-20.2 133.6l3 5.8h-403l3-5.8z"/><path fill-rule="evenodd" class="d" d="m1067.7 121.9c0 2.3-0.5 4.6-1.3 6.7-0.9 2.1-2.2 4-3.8 5.6-1.6 1.6-3.5 2.9-5.6 3.8-2.1 0.8-4.4 1.3-6.7 1.3h-105.4c-2.3 0-4.5-0.5-6.6-1.3-2.1-0.9-4-2.2-5.7-3.8-1.6-1.6-2.8-3.5-3.7-5.6-0.9-2.1-1.3-4.4-1.3-6.7v-56.6c0-8.3 7.1-15.1 15.8-15.1h15.8v18.3h76.8v-4.9c0.9-7.5 7.6-13.4 15.8-13.4h15.9zm-108.5-28.5v18.9h76.8v-18.9z"/><path fill-rule="evenodd" class="d" d="m1097.4 50.3h15.9c8.3 0 15.1 6 15.8 13.7v15h34.1v13.5c0 7.3-6 13.2-13.6 13.6h-20.5v91.5c-1.4 30.5-41.1 49.2-91.7 49.2-50.6 0-91.7-19.2-91.7-48.2 0-29 41.1-48.1 91.7-48.1 23 0 47.4 5.3 60 12.5zm-6.4 148.3c0-13.9-24-22.9-53.6-22.9-29.6 0-53.6 9-53.6 22.9 0 13.9 24 22.9 53.6 22.9 29.6 0 53.6-9 53.6-22.9zm288.3 4.1c0 26.5-43.7 44-97.5 44-53.8 0-97.5-17.5-97.5-44 0-26.6 43.7-44.1 97.5-44.1 53.8 0 97.5 17.5 97.5 44.1zm-39.2 0c0-12-26.1-19.6-58.3-19.6-32.2 0-58.3 7.6-58.3 19.6 0 11.9 26.1 19.6 58.3 19.6 32.2 0 58.3-7.7 58.3-19.6zm-164-107.9v-12.3q5.1 0 10.3-0.3 0.6 0 1.2-0.1 0.6 0 1.2-0.1 0.5 0 1.1 0 0.6-0.1 1.2-0.1c30.1-2.7 59-13.7 65.9-34.2h49.6c6.9 20.5 35.8 31.5 65.9 34.2q2.3 0.2 4.6 0.3 1.3 0.1 2.6 0.1 1.3 0.1 2.6 0.1 1.3 0.1 2.6 0.1 1.3 0 2.6 0v12.3c0 7.1-6.1 12.9-13.5 13q-0.2 0-0.3 0.1-0.7 0-1.5-0.1c-34.8-1.6-69.3-9.2-90.4-32.1-21.1 22.9-55.6 30.5-90.5 32.1q-0.7 0.1-1.5 0.1-0.1-0.1-0.2-0.1c-7.5-0.1-13.5-5.9-13.5-13z"/><path fill-rule="evenodd" class="d" d="m1391.8 124.1v13c0 7.2-6.1 13-13.7 13h-206.3v-13c0-6.9 5.5-12.5 12.6-13h81.5v-5.9c0.6-7.8 7.5-14 15.9-14h15.8v19.9zm-676.3-42.8c-7.5-0.4-13.4-6.3-13.4-13.5v-13.5h57.8v-3.6c0.6-7.8 7.4-14.1 15.9-14.1h15.8v17.7h43.9c7.5 0.1 13.6 5.8 13.9 12.8v14.2h-23.5c6.1 8.5 9.6 18.5 9.6 29.3 0 24.8-18.6 45.7-43.9 52.1v18h80.1v-117.2c0.9-7.2 7.2-12.9 15-13.2h16.6v189.3h-15.9c-8.1 0-14.8-5.8-15.7-13.3v-18.6h-156.2c-7.5-0.4-13.4-6.3-13.4-13.5v-13.5h57.8v-17.8c-25.8-6.1-44.8-27.2-44.8-52.3 0-10.8 3.5-20.8 9.6-29.3zm92.1 29.3c0-16.1-14.4-29.1-32.3-29.1-17.8 0-32.3 13-32.3 29.1 0 16 14.5 29 32.3 29 17.9 0 32.3-13 32.3-29zm-311.5 77c-7.8-0.1-14.1-6.1-14.1-13.5v-13.5h76.4v-19.3h-70c-1.7-0.1-3.3-0.6-4.8-1.3-1.5-0.7-2.9-1.8-4-3-1.2-1.2-2.1-2.7-2.7-4.2-0.6-1.6-0.9-3.3-0.9-4.9v-13.6h163.8v-37.6h-143.7c-7.8-0.1-14-6-14.1-13.4v-0.1-13.5h172.1c9.6 0 17.4 7.7 17.4 17.3v47.3q0 0 0.1 0 2.2 0.6 4.2 1.8 1.9 1.3 3.3 3.1 1.4 1.8 2.2 4 0.7 2.2 0.7 4.5v13.6h-92v19.3h64.1c9.6 0 17.4 7.8 17.4 17.3v61.7h-15.8c-8.6 0-15.6-6.6-15.9-14.7v-37.3z"/></svg>